<?xml version="1.0" encoding="UTF-8" standalone="no"?>
<svg
   xmlns:dc="http://purl.org/dc/elements/1.1/"
   xmlns:cc="http://creativecommons.org/ns#"
   xmlns:rdf="http://www.w3.org/1999/02/22-rdf-syntax-ns#"
   xmlns:svg="http://www.w3.org/2000/svg"
   xmlns="http://www.w3.org/2000/svg"
   xmlns:sodipodi="http://sodipodi.sourceforge.net/DTD/sodipodi-0.dtd"
   xmlns:inkscape="http://www.inkscape.org/namespaces/inkscape"
   width="798.74609"
   height="599.99609"
   viewBox="0 0 7.9874609 5.9999609"
   id="svg2"
   version="1.1"
   inkscape:version="0.91 r13725"
   sodipodi:docname="Flag_of_Lithuania.svg">
  <metadata
     id="metadata14">
    <rdf:RDF>
      <cc:Work
         rdf:about="">
        <dc:format>image/svg+xml</dc:format>
        <dc:type
           rdf:resource="http://purl.org/dc/dcmitype/StillImage" />
        <dc:title></dc:title>
      </cc:Work>
    </rdf:RDF>
  </metadata>
  <defs
     id="defs12" />
  <sodipodi:namedview
     pagecolor="#ffffff"
     bordercolor="#666666"
     borderopacity="1"
     objecttolerance="10"
     gridtolerance="10"
     guidetolerance="10"
     inkscape:pageopacity="0"
     inkscape:pageshadow="2"
     inkscape:window-width="1600"
     inkscape:window-height="837"
     id="namedview10"
     showgrid="false"
     fit-margin-top="0"
     fit-margin-left="0"
     fit-margin-right="0"
     fit-margin-bottom="0"
     inkscape:zoom="1.0912634"
     inkscape:cx="431.95086"
     inkscape:cy="307.89279"
     inkscape:window-x="-8"
     inkscape:window-y="-8"
     inkscape:window-maximized="1"
     inkscape:current-layer="svg2" />
  <path
     style="fill:#006a44"
     d="m 0.2194532,1.9899805 -0.001074,0.03459 -4.88e-4,0.016055 L 0.201426,2.2067774 0.1758791,2.3166993 0.1650979,2.3631446 0.1362307,2.4706446 0.0818166,2.5963477 0.0711916,2.6208985 0.0181448,2.7264453 2e-7,2.7553125 l 0.0047071,0.00137 0.0011718,3.32e-4 0.0572071,0.011719 -8.99e-4,-0.013418 -0.0049023,-0.00723 -0.0025,-0.00371 -0.0071289,-0.00711 0.0033203,-0.00689 0.008125,-0.00721 0.0066211,-4.49e-4 0.0085547,-5.86e-4 0.0072265,-0.00617 3.71e-4,-0.00863 -0.0034765,-0.00924 0.0080859,-0.00727 0.002207,-5.86e-4 0.002461,-6.64e-4 0.0023242,-0.016211 2.93e-4,-0.00205 0.0027343,-0.00203 0.0035547,-0.00258 0.003691,-0.00273 0.00125,-1.95e-4 0.008164,-0.00135 0.0129297,-0.00662 0.0169726,-0.017285 0.0204297,-0.00896 -0.006211,-0.00721 -6.25e-4,-0.00949 0.008848,-0.024414 -4.69e-4,-0.00754 -0.008223,-0.00904 0.004004,-0.011641 -0.003438,-0.0084 0.0361719,-0.045176 -0.004121,-0.00451 -0.008379,-0.00805 -0.001836,-0.00178 0.002539,-0.0049 0.0139844,-0.00855 0.001621,-9.96e-4 0.0132813,-0.016172 -0.009609,-0.015508 0.01375,-0.01127 0.001582,-0.00127 0.0100586,-0.00822 0.004277,-0.00785 -0.0125391,-0.030605 -0.0170313,-0.011289 0.006211,-0.00703 -0.005117,-0.00543 0.006934,-0.010937 -0.002031,-0.016035 0.0104102,-0.016836 -6.44e-4,-0.00963 -2.54e-4,-0.00365 0.0202148,-0.034414 0.004785,-0.00816 -0.00832,-0.024199 -0.002461,-0.00807 -0.001231,-0.00406 0.001856,-0.00598 0.002109,-0.00668 0.00666,-0.015703 -0.003809,-0.014023 0.00168,-0.018184 0.0111133,-0.034961 0.005371,-0.022949 0.002109,-0.00902 -0.00127,-0.031211 -8e-5,-6.84e-4 -0.003594,-0.027598 0.007559,-0.024824 -0.00125,-0.02541 -0.0386328,0 z m 0.0967578,0 0.006914,0.027637 0.00748,0.01625 0.0155273,0.027637 0.0108789,0.019356 0.006211,0.033926 -0.003144,0.01375 0.004082,0.013281 -7.03e-4,0.013613 -0.001016,0.00963 0.00375,0.00771 0.005352,0.00846 0.007402,0.00275 0.0148243,0.00543 0.002617,0.015781 -0.002578,0.00977 0.009453,0.00975 0.00416,0.014863 0.00666,0.028359 0.004375,0.03084 0.009648,0.025664 -0.009941,0.032598 0.003359,0.014922 -0.005801,0.021875 8.4e-4,0.025547 -0.001348,0.00418 -0.005137,0.015703 -0.00625,0.01918 -0.0122266,0.00957 -0.0025,0.010527 -0.0212891,0.053418 -0.0339062,0.064707 0.002852,0.00248 0.008828,-0.00236 0.0152343,-0.0091 0.0166797,-0.00996 0.010586,-0.00242 0.0123828,-0.0093 0.005117,-0.017734 0.009141,-0.00457 0.003223,-5.27e-4 0.006094,-9.96e-4 0.010625,0.00518 0.009609,0.017227 -0.0100391,0.00537 -3.52e-4,1.95e-4 -0.006308,-8e-5 -0.002227,0.00687 0.006875,0.016563 -0.001602,0.01002 -0.001914,0.012051 0.0330078,0.018926 0.002227,0.00746 0.004277,0.00375 0.0142383,-9.18e-4 -0.0152539,0.013476 0.006211,0.012969 -0.001523,0.011309 0.0111914,0.021152 -0.004941,0.014141 0.0341601,-0.011504 -0.008027,0.00766 4.88e-4,0.0076 -0.0125586,-0.00105 -0.0136914,0.0098 -0.003086,0.00105 -0.005117,0.011074 -0.002617,-0.00137 -0.006641,-0.00342 -0.006914,0.004 0.002637,0.00563 -0.009199,0.00328 -4e-5,0.00223 -1.56e-4,0.0085 0.001758,0.01377 0.006992,0.012031 -0.001992,0.010859 -0.0164258,0.02293 0.002578,0.00199 0.007051,0.00547 0.002461,0.00189 0.001348,0.00105 0.002168,-0.00217 0.0278711,-0.027715 0.00498,-0.00496 0.003027,-0.00287 0.002637,-0.00246 0.0240234,-0.022695 0.0400781,-0.029277 0.008965,-0.00268 6.44e-4,-1.95e-4 0.0185938,-0.00561 0.0143945,-0.00434 0.00291,-8.4e-4 7.62e-4,-2.15e-4 0.0310156,0.031172 0.006816,0.013047 0.0135156,0.025859 0.002344,0.00449 0.007676,0.014687 0.015332,0.051406 0.0230273,0.034043 0.0168164,0.0098 1.17e-4,8e-5 0.0101367,0.00588 0.0260157,0.036211 0.008711,0.00412 0.0175781,0.00832 0.004238,-0.00365 0.0145117,-0.012656 0.006211,-0.00223 0.007715,-0.00273 0.004004,-0.00143 0.009394,-0.00338 0.008164,0.00111 0.0181836,0.00256 0.0187695,0.012832 0.0191993,0.010566 0.0320703,0.00215 0.0350195,0.013086 0.0185547,0.019844 0.008672,0.00596 0.0138867,0.00949 0.0118945,0.00813 0.032617,0.033008 0.014902,0.027051 0.00258,0.00229 0.00957,0.00852 0.00953,0.00852 0.00609,0.00543 0.047441,0.019062 0.022031,-1.76e-4 0.02875,-2.15e-4 0.017656,0.023223 0.020644,0.027129 0.039063,0.011641 0.017695,0.010605 0.02002,0.012051 0.00279,8.98e-4 0.00305,9.96e-4 0.02125,0.00701 0.010586,0.00348 0.00428,0.00141 0.01875,0.00619 0.024531,-0.00184 0.043965,-0.025606 0.012324,0.00121 0.030254,0.00291 0.010742,0.016231 -0.00727,0.040019 -0.00289,0.029785 0.017402,0.03125 0.018789,0.013613 0.00939,0.0068 0.00184,0.00131 0.00119,8.4e-4 0.050254,0.00137 0.015742,-0.00529 0.015156,-0.021934 0.014043,-0.031426 0.028008,-0.00963 0.036523,-0.00328 0.010606,-0.00457 0.041035,-0.011641 0.00586,-0.00166 0.015879,-0.00229 0.040606,-0.00584 0.00217,-3.12e-4 0.00219,2e-5 0.014102,1.17e-4 0.018359,1.76e-4 0.044023,0.00566 0.017344,0.00223 1.37e-4,2e-5 0.038535,0.01041 0.00867,0.00215 0.00668,0.00166 0.010059,0.00248 0.02625,-1.95e-4 0.00701,-6e-5 0.035781,0.013379 0.00639,0.0024 0.024687,0.0049 0.033457,-0.01041 0.039648,-0.022969 0.033789,-0.018613 0.028184,-0.00777 2.54e-4,-8e-5 0.00709,-0.00195 0.00375,0.00248 0.00441,0.00293 0.00633,0.0042 0.036211,0.1173242 0.00789,0.00926 0.017637,0.020723 0.0085,0.017754 0.00781,0.016289 0.010371,0.021543 0.013242,0.026445 0.014199,-0.00725 2.34e-4,-1.37e-4 1.17e-4,-0.028418 0.00957,-0.00451 0.00621,-0.00295 0.00832,0.013281 0.00324,0.00518 0.00197,0.014805 0.00412,-7.81e-4 0.00523,-9.96e-4 0.0098,5.86e-4 0.00363,1.76e-4 0.027988,0.02582 0.00193,0.011992 0.00174,0.010859 0.00205,0.00375 0.00195,0.00352 0.00375,0.00674 0.00102,0.00184 0.00389,0.00643 0.00332,0.00545 0.028477,0.00686 0.00121,0.00406 7.62e-4,0.00256 0.00117,0.00404 -0.011777,0.012969 -0.0023,0.00254 1.37e-4,0.00316 1.95e-4,0.00479 2.93e-4,0.00686 0.00332,0.00512 9.96e-4,0.0015 0.02166,-0.014394 0.00443,-0.00295 0.00232,0.00354 0.00629,0.00963 0.00547,0.017285 0.00301,0.00951 8.01e-4,0.00254 0.015,0.00615 6.64e-4,-3.71e-4 0.017676,-0.0099 0.00672,0.00471 0.024121,0.016895 0.00373,0.00262 0.012285,0.00492 0.00137,0.00729 0.00195,0.01002 4e-5,1.95e-4 0.00453,0.011895 -0.00162,0.011797 -4.3e-4,0.0032 -0.00123,0.00137 -0.00523,0.00563 -0.00156,0.0059 -0.00539,0.020176 0.00441,0.00129 0.00342,9.96e-4 0.00844,0.00242 0.015762,0.025 -2.73e-4,0.0017 -0.00291,0.01873 3.52e-4,0.00832 3.12e-4,0.00785 0.019297,0.012773 5.47e-4,0.013477 1.17e-4,0.0027 -0.00102,0.00994 -8.79e-4,0.0091 0.011211,0.013027 -0.00295,0.00453 -0.00373,0.00563 -0.00342,0.00518 -0.00543,0.00465 -0.00621,0.00529 0.00559,0.0125 3.12e-4,8.01e-4 0.00701,0.00779 7.81e-4,0.00602 0.00117,0.00879 -0.00813,3.12e-4 -0.0025,1.17e-4 -0.013242,5.47e-4 -1.56e-4,0 -0.011934,0.0032 -0.00531,0.00471 -0.00754,0.00668 10e-5,0.00283 5.27e-4,0.01334 -0.010059,0.015332 -0.0016,3.91e-4 -0.014863,0.00393 -0.00205,5.27e-4 -0.012871,0.011387 -0.00641,0.0076 -0.00891,0.010605 -0.019824,0.0049 -0.0032,5.27e-4 -0.019355,0.00314 -0.00381,0.00926 4.0201758,0 0,-0.00318 -0.00623,-0.035566 -0.016621,-0.029258 0.00402,-0.060684 0.010293,-0.035566 0.0082,-0.013574 0.00484,-0.00797 0.01998,-0.032949 0.01209,-0.016816 0.021016,-0.029258 9.57e-4,-0.00111 0.067422,-0.078438 0.00307,-0.035879 0.00105,-0.012246 0.014551,-0.025137 0.056816,-0.034902 0.047519,-0.014355 0.033281,-0.014258 0.019043,-0.021543 0.016621,0.00244 0.00838,0.00572 0.014004,0.019648 0.030508,0.022148 0.019355,0.00521 0.024551,-0.00521 0.017109,-0.02084 0.02084,-0.024746 0.00742,-0.02084 0.037969,-0.015625 0.027402,-0.017539 0.00311,-0.00199 0.023809,-0.01041 0.069316,-0.040723 0.0066,-0.017383 0.00107,-0.00289 0.0035,-0.00904 0.020586,-0.053086 0.00664,-0.03627 0.00563,-0.030625 0.00744,-0.00965 0.010117,-0.013027 0.00361,-0.00473 0.00279,-0.00359 0.00111,-0.0066 0.00385,-0.02207 -0.018984,-0.02166 1.17e-4,-0.021563 0.052754,-0.042754 0.033594,-0.03332 0.055898,-0.023242 0.00633,-0.00262 0.033379,0.00975 0.052383,0.017148 0.01418,0.016895 0.028457,0.019375 0.019395,-0.035742 0.021758,-0.030879 0.035918,-0.014102 0.037715,0.029473 0.0024,0.00189 1.76e-4,1.56e-4 0.018164,-0.00121 0.010391,-6.44e-4 0.021699,-0.00145 0.014258,-9.18e-4 0.016582,0.014551 0.02873,-0.00924 0.014473,-0.00826 0.014336,-0.00818 0.026289,-0.00217 0.021738,-0.023691 -0.00211,-0.026328 -0.00508,-0.00746 -0.016074,-0.023848 -0.00211,-0.021602 0.014473,-0.014141 0.00406,-2.54e-4 0.031816,-0.00176 0.019336,-0.018926 0.00541,-0.054941 0.017324,-0.047656 0.03375,-0.01873 0.069805,-0.030176 0.013379,-0.00576 0.00441,-0.00191 0.025586,-0.010918 0.00385,6e-5 0.02248,3.32e-4 -0.0033,-0.00643 -0.00848,-0.017617 -0.00361,-0.00248 -0.00346,-0.00236 -0.00719,-0.0049 -0.00201,-0.00518 -0.00105,-0.00281 -0.00229,-0.00598 -0.00312,-0.00811 -7.81e-4,-0.00201 -0.00779,-0.00137 -0.010352,-0.00184 -0.010547,-0.00191 -0.00463,-0.00646 -0.014258,-0.020117 -0.00861,0.00354 -0.00824,0.0034 -0.00617,-0.00732 -0.00801,-0.00955 -0.012012,-1.95e-4 -0.040664,-0.00523 -0.026484,0.00924 -0.014297,-0.00734 -0.00893,-0.00234 -0.010176,-0.0027 -0.031035,-0.014668 -0.021348,-0.019375 -0.00736,0.014277 -0.013867,0.00182 -0.00291,4.1e-4 -0.00117,0.00104 -0.00502,0.00439 -0.01332,0.011738 -0.00381,0.00334 -8.79e-4,7.81e-4 -0.011816,-0.014473 -0.011445,0.00893 -0.012754,0.00992 -0.00775,0.00611 -0.0043,0.0034 -0.00379,-0.00385 -0.00572,-0.00584 -0.00469,-0.00719 -0.014433,0.00221 -0.00963,0.00471 -0.01668,-0.00975 -0.016699,-0.012109 -0.014394,0.00229 -0.011406,-8.59e-4 -0.024551,-0.00182 -0.00867,-0.00242 -0.00301,-0.00262 -0.00156,-0.00133 -0.00719,-0.00629 -0.00295,-0.00262 -0.0048,-0.00707 6.05e-4,-0.00703 5.27e-4,-0.00125 0.00279,-0.0068 0.00496,-0.00746 0.00496,-0.00695 0.012559,-0.011719 0.023027,-0.024219 0.00598,-0.00537 0.031387,-0.021211 0.016914,-0.011797 -0.00213,-0.02873 -0.00367,-0.1172461 -0.00229,-0.031445 -0.00107,-0.014394 -0.00234,-0.032148 -7.23e-4,-0.010547 -0.023574,-0.052832 -0.0015,-6.64e-4 -0.020098,-0.0091 1.37e-4,-0.016758 0.029023,-0.014102 0.00246,-5.66e-4 0.045879,-0.010937 0.021621,-0.024883 0.0052,-0.00596 0.00664,-0.025391 8.98e-4,-0.00322 0.024336,-0.023633 0.00258,-0.00457 0.012168,-0.021602 -0.00246,-0.023125 -0.00162,-0.014727 -2.93e-4,-0.00281 1.17e-4,-0.010957 -7.3388086,0 z"
     id="rect6"
     inkscape:connector-curvature="0" />
  <path
     style="fill:#c1272d"
     d="m 2.4785743,3.9999805 -0.00457,7.42e-4 -0.0085,0.020703 -0.00635,0.00699 -0.012246,0.00613 -0.011328,0.00572 -0.00756,0.012226 -0.00361,0.00588 -0.00229,0.00369 -2.73e-4,4.49e-4 -0.00842,0.029785 -8.4e-4,0.00309 -0.00119,0.00666 -0.00242,0.013887 -7.23e-4,0.004 -6e-5,7.81e-4 -8.01e-4,0.010098 0.00371,0.00451 5.08e-4,6.64e-4 0.014902,0.00477 0.00221,0.00826 -9.37e-4,4.49e-4 -3.32e-4,2.73e-4 -4.49e-4,3.91e-4 -6.25e-4,8.4e-4 -4.69e-4,9.18e-4 -2.15e-4,0.00209 6.84e-4,0.00197 6.25e-4,8.4e-4 8.2e-4,6.64e-4 8.98e-4,4.49e-4 9.96e-4,2.54e-4 0.00105,8e-5 0.00102,-2.73e-4 0.00131,1.37e-4 -0.00687,0.013555 -0.00529,0.01041 -0.00193,0.00818 0.018184,0.025801 0.00336,0.013867 8.01e-4,0.00328 -0.00131,0.00896 -4.49e-4,0.00309 -6.05e-4,0.00412 -0.00119,0.00818 -0.00123,0.00301 -0.00154,0.00375 -0.00445,0.010938 -0.00385,0.00262 -0.016016,0.010937 -0.00217,0.00346 -0.00816,0.012969 -0.00459,0.00732 -0.00152,0.017285 0,1.37e-4 -0.00252,0.00131 -0.00529,0.00277 -0.021113,0.011035 -0.00834,0.017676 -0.00719,0.017676 0.0067,0.00746 0.011231,0.0125 1.17e-4,2.73e-4 9.77e-4,0.00221 0.00818,0.018476 8.01e-4,0.00176 -0.00119,0.025469 -0.00246,0.00588 -0.01918,0.045898 0.00201,0.047285 0.00311,0.032441 0.00105,0.011211 0.010215,0.079297 0.00477,0.011641 0.031758,0.027227 0.016367,0.033848 0.025293,0.083359 0.00658,0.028066 0.00682,0.029219 0.0125,0.00617 0.018945,0.00937 0.00178,-0.00209 0.013164,-0.015313 0.00703,-0.00785 0.00748,-0.00832 0.00273,-0.00303 0.00258,-0.010332 0.038184,-0.033164 0.070566,-0.00424 0.00598,0.0084 0.00465,0.00654 0.00918,0.00373 0.00746,-0.00238 0.00734,-0.00232 0.010371,0.00777 0.011484,0.011797 0.00822,0.00576 2.93e-4,1e-4 0.00988,0.00363 0.010059,-0.00617 7.23e-4,-4.49e-4 0.010664,-0.00863 0.015195,0.00354 0.00557,0.00367 0.011856,0.00781 4e-5,4e-5 2e-5,4e-5 0.00887,0.022168 -0.00424,0.020605 0.00281,0.020371 0.012656,0.01584 0.025195,0.0051 0.01082,0.00236 0.017441,0.00375 0.013418,0.010723 -1.76e-4,8.2e-4 -0.00326,0.014629 -0.00502,0.025801 -0.00705,0.015957 -0.00215,0.00486 0.0024,0.010137 0.026621,0.017363 0.020605,0.016563 0.021074,0.00125 0.022891,-0.01041 0.0017,-7.81e-4 0.027422,-0.015391 0.00658,-0.00287 0.00621,-0.0027 0.015215,0.00557 0.00986,0.023105 0.013418,0.016426 0.00121,0.00145 0.015254,0.0076 0.011973,-4.49e-4 0.016191,0.011484 0.00434,0.00311 0.016016,0.029082 0.00584,0.00988 0.011113,0.018906 0.0043,0.00729 0.021504,0.015586 0.053437,0.014414 0.042266,0.00967 0.038535,0.01709 0.014414,0.012773 0.019805,0.017578 0.00795,0.00703 0.016953,0.030137 0.00158,0.00357 0.00713,0.01623 0.0049,0.011152 0.010977,0.015586 0.00453,0.00637 0.00373,0.00527 0.01998,0.022266 0.00588,0.00654 0.032188,0.013379 8.98e-4,3.71e-4 0.00176,7.81e-4 0.0015,5.86e-4 0.011328,0.00721 0.013066,0.00832 0.012949,0.031289 0.00703,0.032539 0.011426,0.078418 5.66e-4,0.011523 0.00291,0.062207 0.00111,0.023672 0.00139,0.029297 -0.00494,0.03293 -0.00256,0.00375 -0.010137,0.014746 -0.011016,0.016094 -0.00215,0.019102 -0.00285,0.025293 -4.49e-4,0.00389 0.00258,0.00668 0.015977,0.041445 0.00143,0.00375 0.00691,0.00463 0.059219,0.039746 0.024355,0.0125 0.00637,0.00328 0.030937,0.023047 0.00279,0.00529 0.014473,0.027695 0.00904,4.49e-4 0.00318,1.37e-4 0.018027,8.4e-4 0.04123,-0.020508 0.023828,-0.01748 0.00344,-0.00256 0.074453,0.0025 0.030762,0.018242 0.02918,0.047148 0.024473,0.0084 0.00129,4.3e-4 0.022988,-0.010254 0.00404,-0.021758 -0.00438,-0.00639 -0.00865,-0.012559 -0.0015,-0.00219 -0.017539,-0.019238 -0.00162,-0.00178 0.00217,-0.00178 0.00693,-0.00568 0.018359,-0.00779 0.018086,-0.019727 0.011524,-0.016211 8.59e-4,-0.00117 0.00193,-0.00273 0.00135,-0.00189 0.00516,0.00168 0.00188,5.47e-4 0.017246,0.00629 0.00789,0.00291 0.00539,0.00195 0.032559,0.00277 0.00937,7.81e-4 0.010215,-0.00746 0.010332,-0.00754 -0.00293,-0.023887 0.023262,-6.64e-4 0.035645,0.030254 0.024024,0.016777 0.02334,0.01623 0.00354,-4.69e-4 0.042617,-0.00609 0.040645,-0.012754 0.00127,-2.73e-4 0.011172,-0.00211 0.033418,-0.00615 0.025918,-0.00648 0.016191,-0.00406 0.012324,-0.012695 0.025547,-6.64e-4 0.0425,0.027754 0.028848,0.040586 0.00473,0.00662 0.047031,0.025352 0.080351,0.01877 0.013027,0.00313 0.093106,0.00992 0.064844,-0.00848 0.040137,-0.033594 0.00104,-8.4e-4 0.00557,-0.00637 0.042246,-0.048125 0.024648,-0.028086 4.1e-4,-4.49e-4 0.059648,-0.046758 0.094316,-0.064101 0.063223,-0.025996 0.00383,-0.00156 0.00486,2.73e-4 0.016914,9.96e-4 0.010273,5.08e-4 5.86e-4,10e-5 0.0033,0.00518 0.00238,0.00162 0.00744,0.026055 -0.019121,0.021465 -0.00418,0.027871 -0.00559,0.022305 0.022324,0.00141 c 0.012548,0 0.037637,-0.00279 0.037637,-0.00279 l 0.00697,-0.018125 0.026484,-0.023711 -0.00697,-0.013945 0.00697,-0.012539 0.012539,0.013945 c 0,0 0.02231,-0.019511 0.03207,-0.013945 0.00976,0.00558 0.026504,0.00559 0.026504,0.00559 0,0 0.00416,-0.026502 0.00695,-0.030684 0.00279,-0.00418 0.025098,-0.018125 0.025098,-0.018125 l 7.42e-4,-0.010234 6.64e-4,-0.00928 c 0,0 0.026493,-0.00558 0.03207,-0.00418 0.00558,0.00139 0.00695,-0.01115 0.00695,-0.015332 0,-0.00418 -0.00558,-0.00559 -0.011152,-0.00559 -0.00558,0 -0.018109,0.00418 -0.023691,-0.00139 -0.00234,-0.00234 -0.00616,-0.00541 -0.00979,-0.00818 -6e-5,-6e-5 -6e-5,-5e-5 -10e-5,-6e-5 -0.005,-0.00385 -0.00965,-0.00709 -0.00965,-0.00709 0,0 -0.00279,-0.046003 -0.00836,-0.055762 -0.00274,-0.0048 -0.012869,-0.02033 -0.023125,-0.035566 -1.67e-4,-2.62e-4 -3.35e-4,-5.19e-4 -5.08e-4,-7.81e-4 -1.5e-4,-2.17e-4 -3.1e-4,-4.27e-4 -4.49e-4,-6.44e-4 -0.00115,-0.00171 -0.00231,-0.00341 -0.00344,-0.00508 -2.51e-4,-3.46e-4 -4.69e-4,-6.85e-4 -7.03e-4,-0.00105 -0.00105,-0.00152 -0.00209,-0.00304 -0.00311,-0.00451 -3.07e-4,-4.35e-4 -5.83e-4,-8.51e-4 -8.79e-4,-0.00129 -9.59e-4,-0.00138 -0.00189,-0.00273 -0.00279,-0.00404 -2.84e-4,-4.02e-4 -5.36e-4,-7.66e-4 -8.2e-4,-0.00115 -8.53e-4,-0.00123 -0.00172,-0.00246 -0.00252,-0.00359 -4.63e-4,-6.64e-4 -8.79e-4,-0.00123 -0.00131,-0.00184 -5.8e-4,-8.14e-4 -0.00118,-0.00168 -0.00172,-0.00242 -4.85e-4,-6.64e-4 -8.99e-4,-0.0012 -0.00135,-0.0018 -4.13e-4,-5.69e-4 -8.76e-4,-0.0012 -0.00125,-0.0017 -5.19e-4,-6.86e-4 -9.12e-4,-0.0012 -0.00135,-0.00174 -2.17e-4,-2.84e-4 -4.88e-4,-6.7e-4 -6.84e-4,-8.98e-4 -5.8e-4,-7.19e-4 -0.00105,-0.00127 -0.00141,-0.00162 -0.00558,-0.00558 -0.012559,-0.018122 -0.012559,-0.022305 0,-0.00418 0.00139,-0.022305 0.00139,-0.022305 l 0.00838,-0.00139 c 0,0 0.00556,0.00559 0.012539,0.00418 0.00697,-0.00139 0.055781,-0.037656 0.055781,-0.037656 l -0.020918,-0.030644 c 0,0 0.048796,-0.00975 0.058555,-0.00697 0.00976,0.00279 0.037657,-0.00837 0.043223,-0.011152 0.00558,-0.00279 0.052969,-0.022305 0.052969,-0.022305 l 0.029277,-0.00838 0.01748,0.010449 0.020352,0.018848 0.010313,0.00955 0.010586,0.00859 0.01291,0.010527 0.005,0.00404 0.00922,0.00756 0.00754,0.00111 0.036933,0.00555 0.030195,-0.014785 0.018008,-0.018145 0.039785,-0.040078 0.053203,-0.053281 0.010918,-0.017168 0.029746,-0.046738 0.037715,-0.059258 0.023047,-0.040977 0.00926,-0.014473 0.024922,-0.00721 0.023496,-0.013613 0.0016,-2.54e-4 0.014063,-0.00256 0.013144,0.00125 0.022305,0.00516 0.022285,-1.37e-4 0.034375,-0.00602 0.021894,-0.00381 0.00223,-9.76e-4 0.031562,-0.014356 0.00541,-0.0024 0.016348,-0.012832 9.57e-4,-8.01e-4 0.020547,-0.016152 0.024844,-0.010879 0.017012,-0.00145 0.020996,0.00123 0.019648,-0.00143 0.0065,-0.013496 0.00904,-0.022852 0.014414,-0.00412 0.00922,0.00668 0.00139,0.021484 0.00803,0.026777 0.022383,0.024082 0.014512,0.017363 0.040859,0.065606 0.00139,0.020098 -0.00648,0.012109 -0.00912,0.012109 0.00396,0.010742 0.00145,0.02416 -0.00385,0.025469 -0.010703,0.00793 -0.01668,0.012383 -0.035234,0.013555 -0.00426,0.00877 -0.00479,0.010078 0.00529,0.017422 0.00201,0.00412 9.57e-4,0.00189 0.016816,0.03418 0.012363,0.00131 0.024238,0.00256 0.043184,0.014531 0.020918,-0.00139 0.024844,0.00525 0.01043,0.00668 0.015742,0.014727 0.013047,-0.00137 0.01959,-0.010801 0.024766,-0.016172 0.02375,-0.020684 9.96e-4,-8.59e-4 0.036543,-0.021543 0.024844,-0.00543 0.00129,5.27e-4 0.024844,0.010215 0.016973,-0.00137 0.00258,-0.018809 -0.00523,-0.025527 0.00389,-0.022793 0.00264,-0.01748 -0.01707,-0.0375 -0.00789,-0.018809 0.010469,-0.013418 0.027461,-0.00674 0.00523,-0.010801 -0.00262,-0.013359 -0.01832,-0.00805 -0.024922,-0.00799 -0.010488,-0.018789 -0.00523,-0.020117 -0.022305,-0.012109 -0.021504,-0.00686 -0.0034,-0.00111 -0.012051,-0.024746 -0.00867,-0.026465 -0.00336,-0.010078 -0.00654,-0.01998 -0.018457,-0.01668 -0.014453,-7.23e-4 -0.026484,-0.00131 -0.036797,0.012695 -0.053223,2.15e-4 -0.024609,-0.014551 -1.17e-4,-6e-5 -0.01834,-0.010352 -0.00619,-0.01459 -6e-5,-0.00969 -8e-5,-0.023828 0.01418,-0.031504 0.00977,-0.00936 0.02084,-0.020059 0.018281,-0.041953 0.00195,-0.029316 0.00402,-0.020977 0.028711,-0.00635 0.00816,-0.016738 7.81e-4,-0.014766 0.00117,-0.020879 -0.00914,-0.010137 -0.011484,-0.012832 -6e-5,-0.010762 -6e-5,-0.00594 0.00324,-0.021992 7.81e-4,-0.00523 0.024492,-0.035703 0.034766,-0.069199 0.022481,-0.054473 0.00346,-0.00576 0.015781,-0.026113 0.00576,-0.015644 0.00357,-0.015586 0.0052,-0.013496 0.00895,-0.013477 0.00475,-0.00598 0.00684,-0.00594 0.00949,-0.00709 0.012656,-0.00811 0.00584,-0.00328 0.00951,-0.00221 0.00727,-0.00223 0.00268,-0.00852 0.00178,-0.00563 0.00111,-0.00348 -0.00172,-0.00426 -0.00279,-0.0068 -0.00582,-0.014082 -0.00717,-0.061152 -0.00117,-0.00996 -9.96e-4,-0.00314 -0.00346,-0.011074 -0.00803,-0.025527 -0.00424,-0.058594 0.00408,-0.052383 0.014394,-0.029336 0.010293,-0.022969 0,-0.00486 -6e-5,-0.020293 -6e-5,-0.037695 -0.00118,-0.00682 -4.0106054,0 z"
     id="rect4"
     inkscape:connector-curvature="0" />
  <path
     style="fill:#fdb913"
     d="m 5.3190625,0 -1.95e-4,3.906255e-5 4e-5,1.95312e-5 L 5.3190635,0 Z m -1.56e-4,5.859375e-5 -0.023262,0.0087109363 -0.00787,0.0109375 0.00256,0.01853516 0.00586,0.018125 4.1e-4,0.01558593 -0.0125,0.01394532 -0.014805,0.0092969 -0.029707,-2.5391e-4 -0.017539,-0.01664062 -0.00871,0.0044726 -0.00645,0.01478516 -0.018887,0.01066407 -0.027656,-3.125e-4 -0.00365,-5.9e-5 -0.015371,-1.367e-4 -0.036309,0.007266 -0.018242,0.008965 -0.00951,0.0291992 -0.0092,0.006934 -0.027168,0.0117773 -0.027149,0.004668 -0.01502,0.002539 -0.017949,0.0172266 -0.0077,0.0174805 -3.12e-4,0.009883 -0.027559,0.0390234 -0.02707,0.0241602 -0.018516,0.024668 -0.00168,0.0183594 0.0074,0.0285937 -0.00785,0.0100977 -0.022031,0.0177344 -0.045312,0.0142774 -0.038906,0.0118555 -0.01041,0.00582 -0.030293,0.0169531 -0.01707,0.0105469 -0.023086,-0.001816 -0.011895,-0.0123828 -0.033848,-0.0299219 -0.027481,-0.002812 -0.034258,-0.0266016 -0.00498,-0.002734 -0.025215,-0.0140234 -0.010254,-0.005684 -0.035918,0.00334 -0.025586,0.0158398 -0.014375,0.007734 -0.035059,0.0188672 -0.058399,0.0401953 -0.033555,0.009219 -0.00869,0.002441 -0.019258,0.001035 -0.030898,-0.008828 -0.00449,-0.002676 -0.011387,-0.006758 -0.016563,-0.009824 -0.015078,-0.0160352 -0.00938,-0.006094 -0.020117,0.00127 -0.014766,-0.00291 -0.00648,-0.0377539 -0.033848,-0.0512109 -0.015156,-0.016582 -0.014219,-0.0155078 -0.019902,-5.859e-4 -0.023496,-6.445e-4 -0.013438,-5.273e-4 -0.031758,-0.00125 -0.024922,-0.002207 -0.026699,-0.0142969 -0.067578,0.007285 -0.035781,-0.0121875 -0.00436,-0.001387 -0.013437,-0.004258 -0.018965,0.003613 -0.012539,0.006758 -0.021348,0.0319336 -0.010781,0.001562 -0.0067,-0.004844 -0.00756,-0.0161719 0.00539,-0.0255078 0.010879,-0.0229883 0.00559,-0.0189258 -0.00316,-0.009434 -0.027031,-0.006348 -0.00551,-0.001309 -0.03168,-0.001758 -8.59e-4,-5.9e-5 -0.03166,0.003789 -0.00879,5.273e-4 -0.035488,0.001973 -0.00119,5.9e-5 -0.00971,0.001836 -0.024141,0.00457 -0.072559,0.0449219 -0.04127,0.0255273 -0.034238,0.003672 -0.047637,-0.0168359 -0.036113,-0.0171484 -0.051601,-0.0233203 -0.00184,-0.00332 -0.012461,-0.0227344 -0.078965,-0.0303711 -0.049805,-0.002305 -0.036133,0.00127 -0.033906,0.0150391 -0.013281,0.001523 -0.023828,0.002734 -0.052402,0.0109961 -0.048789,0.0102148 0.00695,0.0426953 -0.029785,0.0398633 -0.00859,0.007012 -0.014551,0.0118359 -0.00891,0.007285 -0.034844,0.0266406 -0.013398,-0.002168 -0.025234,-0.0299805 -0.053242,-0.005762 -0.012871,-0.0163672 -0.02168,-0.0869531 0.00182,-0.0595703 -0.015488,-0.0230078 -0.018594,-0.0069336 -0.020273,-0.008125 -0.021231,-0.01361328 -0.018887,2.1484e-4 -4.69e-4,4.4922e-4 -0.015918,0.01478516 -0.00277,0.01658203 -0.00156,0.009551 -0.00699,0.0279492 -0.013516,0.0148047 -0.043242,0.0111133 -0.055039,0.0101563 -0.047227,0.004727 -0.048144,-7.227e-4 -0.044785,-0.014082 -0.00285,-9.18e-4 -0.00594,0.004199 -0.01666,0.0117773 -0.0025,0.001953 -0.025254,0.0199809 -0.017129,0.00498 -0.016094,-0.0111328 -0.0018,-0.00125 -0.046719,-0.009941 -0.00652,-0.0256055 -3.91e-4,-0.001641 -0.00143,-5.273e-4 -0.031543,-0.0110547 -0.00188,-6.445e-4 -0.00352,-0.00127 -0.028144,-0.0194336 -0.030156,-0.001172 -0.00533,-2.148e-4 -0.0076,-2.539e-4 -0.031758,-0.001367 -0.038398,-0.0134375 -0.031094,-0.01781251 -0.0015,-8.3984e-4 -8.79e-4,1.3672e-4 -0.018828,0.0031445 -0.00269,-6.6419e-4 -2.54e-4,-7.81e-5 -0.034687,-0.0083789 -0.040234,0.0023047 -0.043184,0.01320313 -0.00387,0.001191 -0.00797,0.003867 -0.012754,0.006211 -0.01293,0.006289 -0.00742,-0.0170899 -0.025625,-0.02119141 -0.00412,1.1719e-4 -0.021914,7.2266e-4 -0.012207,3.9063e-4 -0.00383,1.3672e-4 -0.029141,0.01046875 -0.00785,0.0028125 -9.37e-4,-1.172e-4 -0.015781,-0.0019727 -0.00268,-3.125e-4 -0.018359,-0.0099609 -0.00748,-0.004082 -0.012012,-0.0067969 -0.00822,-0.0046484 -0.010586,-0.005957 -0.037383,-0.0050391 -0.041699,-0.01269531 -0.039219,9.7656e-4 -0.03209,0.0083203 -0.051914,0.01171875 -0.070762,0.005293 0,0.02494141 -0.00785,0.008125 -0.00621,0.021875 -8.98e-4,0.003184 -0.012207,0.0183398 -0.00998,0.009766 -0.01957,0.002812 -0.00674,0.005371 -0.022441,0.017793 -0.043262,0.01375 -0.025019,0.002031 -0.03834,-0.0187305 -0.022617,0.0144141 -6.64e-4,1.953e-4 -0.012949,0.00418 -0.00865,0.006367 -0.00543,0.003926 -0.025996,0.0313672 -0.033223,0.0143164 -0.031797,0.0195313 -0.018145,0.0170117 -0.018066,0.0154687 -0.037305,0.008828 -0.017051,-0.001641 -0.0338671,-0.0118359 -0.014375,-0.002559 -0.0584766,-0.0104687 -0.0606836,0.0423437 -0.0170117,0.0185938 -7.81e-4,3.906e-4 -0.0182031,0.009512 -0.003613,0.001895 -0.008711,0.001895 -0.015918,-0.001367 -0.0160547,-0.001387 -0.0166601,0.006113 -0.009199,0.005215 -0.0120312,0.0233789 -0.009746,0.0258594 -1.76e-4,5.273e-4 -0.004316,0.0203711 -0.007305,0.0135547 -0.0384961,0.0211914 -0.0191601,0.009766 -0.0216211,0.0108008 -0.0222266,0.0102734 -0.0358213,0.007012 -0.0335547,0.03125 -0.0768359,0.10492188 -0.0176172,0.0121484 -0.001152,7.813e-4 -0.026543,0.00582 -0.00957,0.007793 -0.002656,0.007773 -0.003555,0.0103516 0.00127,0.0132422 0.008437,0.024668 0.008691,0.025332 -0.001426,0.009043 -0.002207,0.005098 -0.0313086,0.0720898 -0.007754,0.0101563 -0.0201172,0.0141992 -4e-5,0 -0.0350976,-0.00832 -0.0191407,-0.004512 -0.0193945,-5.859e-4 -0.0133789,0.001973 -0.001719,2.539e-4 -0.003027,0.001387 -0.0201953,0.00916 -0.0263086,0.0166406 -0.0275977,0.0132227 0.001738,0.007461 0.006856,0.0668359 0.001719,0.0677539 -5.27e-4,0.00748 -0.0110742,0.050547 -0.0107422,0.083477 -0.0170117,0.054082 -0.002246,0.02166 0.008047,0.085781 0.007891,0.016289 -0.001602,0.078711 0.008535,0.040508 1.37e-4,0.04793 2.73e-4,0.00166 0.006816,0.043281 0.0105664,0.026973 0.006152,0.036328 0.001367,0.023457 0.001426,0.023828 0.0259376,0.018516 0.0139062,0.024609 0.0111133,0.016953 8.98e-4,0.00139 0.0174024,0.026504 0.004609,0.023379 9.77e-4,0.0051 0.006465,0.03332 0.003301,0.019922 0.001777,0.010742 0.0293359,0.092695 0.009727,0.038945 7.3361914,0 4.88e-4,-0.046914 0.00283,-0.040586 0.00361,-0.035566 0.00174,-0.017012 -0.00268,-0.00643 -0.013438,-0.032481 -0.00615,0.00918 -0.036973,-3.91e-4 -0.020918,-1.95e-4 -0.00852,8.4e-4 -0.0052,5.27e-4 -0.029746,0.00303 -0.016777,-0.012051 -0.062383,-0.036328 -0.021328,-0.017148 -0.00264,-0.00211 -0.053008,-0.012383 -0.031406,0.00457 -0.023301,-0.00594 -0.00563,-0.00145 -0.00229,-0.016699 -0.011914,-0.026328 -0.028672,-0.045488 -0.049043,-0.00904 -0.00402,-8.01e-4 -7.23e-4,-5.86e-4 -0.017207,-0.013945 -0.00268,-0.00217 -0.017891,-0.014531 -0.013086,-0.023379 -0.017266,-0.030762 -0.00318,-0.0057 -0.00949,-0.028633 -0.011289,-0.044238 -0.00324,-0.012715 -0.0092,-0.036133 -0.03125,-0.047852 -0.050762,-0.028809 -0.049648,-0.040801 -0.034902,-0.028652 -0.072461,-0.1050976 -0.00402,-0.00576 -0.039551,-0.056328 -0.048516,-0.023965 -0.01123,-0.00844 -0.029102,-0.021856 -9.57e-4,-7.23e-4 -0.00156,-5.47e-4 -0.047031,-0.016152 -0.00117,-5.08e-4 -0.011484,-0.00545 -0.020391,-0.00971 -4.88e-4,-4.3e-4 -0.016543,-0.015195 -0.00986,-0.010234 -0.00492,-0.0140039 -0.00111,-0.0113281 -0.010449,-0.0178125 -0.019219,-0.00752 -0.013105,-5.9e-5 -0.00506,-0.006543 -0.015859,-0.0277148 -0.00191,-0.001445 -0.025137,-0.0100195 -0.021445,-0.007012 -0.029746,-0.009629 -0.031914,-0.0140039 -0.025898,-0.0171484 -0.028086,-0.0172266 -0.013242,-0.0150586 -0.00828,-0.0172266 -0.00166,-0.0123633 -6e-5,-0.013418 0.00162,-0.0210156 0,-0.00918 8.2e-4,-0.007188 0.00146,-0.0125781 2.93e-4,-0.0181445 -0.00172,-0.0210742 -0.00869,-0.002285 -0.012539,0.007266 -0.016836,0.013418 -0.017422,0.008652 -0.025645,-0.003555 -0.036289,-0.001445 -0.040039,-0.004238 -0.00629,-0.009883 -0.010098,-0.0406641 -0.010527,-0.010293 -0.021211,-0.001562 -0.012227,0.003125 -0.00861,0.005137 -1.37e-4,0.0123633 -0.00396,0.0152539 -0.011582,0.00791 -0.00447,5.469e-4 -0.01791,0.002168 -0.017891,-0.001914 -0.017246,-0.0168359 -0.017402,-0.004453 -0.023203,0.009375 -0.010996,0.012832 -0.021582,-0.0244922 -0.012129,-0.002617 -0.038477,0.007969 -0.034355,9.375e-4 -0.01793,0.0112695 -0.012949,0.0105859 -0.018496,-0.006738 -0.014727,-0.0163086 -0.025996,-0.0320703 -0.022363,-0.003789 -0.010078,-0.0127148 -0.015215,-0.0157031 -0.00324,-0.003359 -0.015215,-5.859e-4 -0.029297,0.0143359 -0.018926,0.009766 -0.026719,0.001719 -0.033144,-0.009043 -0.043477,-0.0166992 -0.020098,-0.003594 -0.00402,-7.227e-4 -0.00961,-0.025918 -8.4e-4,-0.002363 -0.0068,-0.006543 -0.00105,-0.004062 -0.00756,-0.0293359 -8e-5,-1.953e-4 -0.00812,-0.0234375 -3.12e-4,-0.004648 -5.86e-4,-0.008262 -9.77e-4,-0.0139453 -5.66e-4,-0.0128906 -0.00123,-0.0336719 -0.0066,-0.0114844 -0.01123,-0.0147266 -0.00818,-0.0107227 -0.00312,-0.00127 -0.011133,-0.004375 -4.88e-4,-8.008e-4 -0.012383,-0.019707 -0.00852,-0.0136914 -0.0076,-0.0122266 -0.00937,-0.005039 -0.00426,-0.002305 -0.00289,-0.002148 -0.00756,-0.005625 -0.00553,-0.004121 -0.030117,-0.0166992 -0.010254,-0.0258008 9.37e-4,-0.0371289 -0.00109,-0.0458789 -0.024082,-0.0404687 -0.041231,-0.0670508 -0.014551,-0.0384375 0.00119,-0.02232422 0.00609,-0.02382813 L 5.3431395,0.01013491 5.3189012,5.678375e-5 Z M 0.1986914,1.7028907 l -4e-5,2e-5 -0.008438,1.95e-4 0.008027,0.018105 0.004082,0.0092 0.00498,0.011191 0.0142188,0.1825391 -0.002383,0.07584 0.0394336,0 -9.57e-4,-0.019688 0.002285,-0.039687 1.95e-4,-0.011328 4e-5,-0.00258 5.47e-4,-0.030391 -0.004453,-0.030117 -0.001523,-0.022988 0.005801,-0.033125 -0.0152343,-0.037207 -0.008711,-0.021328 -9.76e-4,-0.00242 -0.0239258,-0.04 -0.001621,-0.0027 -0.002246,-7.03e-4 -0.009102,-0.00283 z"
     id="rect8"
     inkscape:connector-curvature="0" />
</svg>
